<svg id="Linkedin" xmlns="http://www.w3.org/2000/svg" width="15" height="13" viewBox="0 0 15 13">
  <path id="Linkedin-2" data-name="Linkedin" d="M11.935,13V8.835C11.935,7.745,11.455,7,10.4,7a1.54,1.54,0,0,0-1.464.986,1.73,1.73,0,0,0-.066.657V13H5.833s.039-7.378,0-8.048H8.87V6.215a2.809,2.809,0,0,1,2.7-1.34C13.49,4.875,15,6.033,15,8.525V13ZM0,13V4.875H3.333V13ZM2.048,3.25C.806,3.25,0,2.535,0,1.626,0,.7.83,0,2.1,0s2.044.7,2.07,1.624c0,.907-.8,1.626-2.094,1.626Z" transform="translate(0)" fill="#fff"/>
</svg>
