<svg xmlns="http://www.w3.org/2000/svg" width="84.998" height="84.999" viewBox="0 0 84.998 84.999">
  <g id="logo_BIGCITY" data-name="logo BIGCITY" transform="translate(0 0)">
    <path id="logo_BIGCITY-2" data-name="logo BIGCITY" d="M21427-171.5a42.5,42.5,0,0,1,42.5-42.5,42.5,42.5,0,0,1,42.5,42.5,42.5,42.5,0,0,1-42.5,42.5A42.5,42.5,0,0,1,21427-171.5Zm26.734-37.322a40.405,40.405,0,0,0-12.875,8.681,40.4,40.4,0,0,0-8.682,12.876A40.232,40.232,0,0,0,21429-171.5a40.251,40.251,0,0,0,3.18,15.764,40.38,40.38,0,0,0,8.682,12.871,40.405,40.405,0,0,0,12.875,8.681A40.259,40.259,0,0,0,21469.5-131a40.256,40.256,0,0,0,15.764-3.18,40.41,40.41,0,0,0,12.871-8.681,40.412,40.412,0,0,0,8.682-12.871A40.286,40.286,0,0,0,21510-171.5a40.267,40.267,0,0,0-3.18-15.764,40.435,40.435,0,0,0-8.682-12.876,40.41,40.41,0,0,0-12.871-8.681A40.256,40.256,0,0,0,21469.5-212,40.259,40.259,0,0,0,21453.736-208.82Zm-11.65,44.875a8.47,8.47,0,0,1,4.789-7.85h-3.865v-17.114h10.393c3.535,0,5.08,2.365,5.08,4.362a3.769,3.769,0,0,1-2.926,3.925,4.04,4.04,0,0,1,3.256,4.184,4.413,4.413,0,0,1-3.479,4.454,8,8,0,0,1,3.941,4.162l-4.465,2.079a3.667,3.667,0,0,0-3.439-2.489,4.068,4.068,0,0,0-4.027,4.287,4.063,4.063,0,0,0,4.027,4.281,3.66,3.66,0,0,0,3.439-2.489l4.465,2.057a8.135,8.135,0,0,1-7.9,5C21446.141-155.1,21442.086-158.687,21442.086-163.945Zm6.105-12.056h4.158a1.13,1.13,0,0,0,1.2-1.155,1.166,1.166,0,0,0-1.2-1.182h-4.158Zm0-6.543h4.006a1.08,1.08,0,0,0,1.021-1.107,1.047,1.047,0,0,0-1.021-1.047h-4.006Zm40.48,27.14v-6.8l-6.414-10.312V-168h-4.566v12.6h-5.178V-168h-4.594v-4.513h4.783a8.392,8.392,0,0,1-4.783-7.823c0-5.491,4.232-8.854,9.414-8.854a8.044,8.044,0,0,1,7.516,4.206l-4.361,2.235a3.534,3.534,0,0,0-3.154-1.873,4.093,4.093,0,0,0-4.156,4.287,4.092,4.092,0,0,0,4.156,4.281,4.89,4.89,0,0,0,2.8-.767v-.745h-3.309v-4.26h8.336v6.873a10.481,10.481,0,0,1-3.2,2.44h6.123l3.18,5.771,3.131-5.771h5.82l-6.359,10.312v6.8Zm-27.781,0v-33.5h5.182v33.5Z" transform="translate(-21427.002 213.998)" fill="#fff"/>
  </g>
</svg>
