<svg id="logo_BIGCITY" data-name="logo BIGCITY" xmlns="http://www.w3.org/2000/svg" width="85" height="85" viewBox="0 0 85 85">
  <path id="Ellipse_19" data-name="Ellipse 19" d="M42.5,2A40.511,40.511,0,0,0,26.736,79.818,40.511,40.511,0,0,0,58.264,5.182,40.244,40.244,0,0,0,42.5,2m0-2A42.5,42.5,0,1,1,0,42.5,42.5,42.5,0,0,1,42.5,0Z" fill="#fff"/>
  <path id="lettres" d="M43622.309-473.76a8.476,8.476,0,0,1,4.793-7.849h-3.871v-17.112h10.391c3.543,0,5.078,2.368,5.078,4.363a3.771,3.771,0,0,1-2.918,3.924,4.041,4.041,0,0,1,3.258,4.188,4.412,4.412,0,0,1-3.477,4.451,8.045,8.045,0,0,1,3.938,4.166l-4.465,2.072a3.68,3.68,0,0,0-3.441-2.488,4.07,4.07,0,0,0-4.023,4.286,4.064,4.064,0,0,0,4.023,4.286,3.666,3.666,0,0,0,3.441-2.488l4.465,2.05a8.136,8.136,0,0,1-7.906,5.01C43626.363-464.9,43622.309-468.5,43622.309-473.76Zm6.105-12.059h4.156a1.127,1.127,0,0,0,1.207-1.151,1.171,1.171,0,0,0-1.207-1.184h-4.156Zm0-6.534h4a1.09,1.09,0,0,0,1.027-1.107,1.054,1.054,0,0,0-1.027-1.052h-4Zm40.484,27.143v-6.808l-6.414-10.3v4.516h-4.559v12.6h-5.184v-12.6h-4.594v-4.516h4.777a8.392,8.392,0,0,1-4.777-7.827c0-5.492,4.23-8.847,9.414-8.847a8.025,8.025,0,0,1,7.512,4.2l-4.363,2.236a3.526,3.526,0,0,0-3.148-1.875,4.088,4.088,0,0,0-4.152,4.286,4.088,4.088,0,0,0,4.152,4.286,4.927,4.927,0,0,0,2.8-.767v-.745h-3.312v-4.264h8.344v6.873a10.6,10.6,0,0,1-3.2,2.445h6.117l3.176,5.766,3.137-5.766h5.82l-6.355,10.3v6.808Zm-27.777,0v-33.512h5.172v33.512Z" transform="translate(-43607.227 523.81)" fill="#fff"/>
</svg>
