<svg id="Instagram" xmlns="http://www.w3.org/2000/svg" width="15" height="15" viewBox="0 0 15 15">
  <path id="Instagram-2" data-name="Instagram" d="M13.217,15H1.783A1.783,1.783,0,0,1,0,13.221V1.779A1.783,1.783,0,0,1,1.783,0H13.217A1.783,1.783,0,0,1,15,1.779V13.221A1.783,1.783,0,0,1,13.217,15ZM1.666,5.833v7.031a.46.46,0,0,0,.449.469H12.884a.46.46,0,0,0,.449-.469V5.833H11.539a2.5,2.5,0,0,1,.346,1.423,4.469,4.469,0,0,1-4.369,4.553A4.468,4.468,0,0,1,3.148,7.257a2.952,2.952,0,0,1,.313-1.423Zm6.25-1.667A3.149,3.149,0,0,0,5,7.5a3.149,3.149,0,0,0,2.916,3.333A3.149,3.149,0,0,0,10.833,7.5,3.149,3.149,0,0,0,7.916,4.167ZM11.333,2.5a.5.5,0,0,0-.5.5V4.5a.5.5,0,0,0,.5.5h1.5a.5.5,0,0,0,.5-.5V3a.5.5,0,0,0-.5-.5Z" fill="#fff"/>
</svg>
