<svg xmlns="http://www.w3.org/2000/svg" xmlns:xlink="http://www.w3.org/1999/xlink" width="85" height="86" viewBox="0 0 85 86">
  <defs>
    <clipPath id="clip-logohover">
      <rect width="85" height="86"/>
    </clipPath>
  </defs>
  <g id="logohover" clip-path="url(#clip-logohover)">
    <circle id="Ellipse_31" data-name="Ellipse 31" cx="42.5" cy="42.5" r="42.5" fill="#240055"/>
    <g id="Groupe_757" data-name="Groupe 757">
      <path id="lettres" d="M0,8.858a8.476,8.476,0,0,0,4.793,7.849H.922V33.819H11.313c3.543,0,5.078-2.368,5.078-4.363a3.771,3.771,0,0,0-2.918-3.924,4.041,4.041,0,0,0,3.258-4.188,4.412,4.412,0,0,0-3.477-4.451,8.045,8.045,0,0,0,3.938-4.166l-4.465-2.072a3.68,3.68,0,0,1-3.441,2.488A4.07,4.07,0,0,1,5.262,8.858,4.064,4.064,0,0,1,9.285,4.571,3.666,3.666,0,0,1,12.727,7.06l4.465-2.05A8.136,8.136,0,0,0,9.285,0C4.055,0,0,3.6,0,8.858ZM6.105,20.916h4.156a1.127,1.127,0,0,1,1.207,1.151,1.171,1.171,0,0,1-1.207,1.184H6.105Zm0,6.534h4a1.09,1.09,0,0,1,1.027,1.107,1.054,1.054,0,0,1-1.027,1.052h-4ZM46.59.307V7.115l-6.414,10.3V12.9H35.617V.307H30.434V12.9H25.84v4.516h4.777a8.392,8.392,0,0,0-4.777,7.827c0,5.492,4.23,8.847,9.414,8.847a8.025,8.025,0,0,0,7.512-4.2L38.4,27.658a3.526,3.526,0,0,1-3.148,1.875A4.088,4.088,0,0,1,31.1,25.246a4.088,4.088,0,0,1,4.152-4.286,4.927,4.927,0,0,1,2.8.767v.745H34.738v4.264h8.344V19.864a10.6,10.6,0,0,0-3.2-2.445H46l3.176-5.766,3.137,5.766h5.82l-6.355-10.3V.307Zm-27.777,0V33.819h5.172V.307Z" transform="translate(69.918 58.908) rotate(180)" fill="#240055" stroke="#fff" stroke-width="1"/>
    </g>
  </g>
</svg>
